<?xml version="1.0" encoding="UTF-8"?>
<svg xmlns="http://www.w3.org/2000/svg" id="Capa_2" viewBox="0 0 210.17 229.85">
  <defs>
    <style>.cls-1{fill:#fff;stroke-width:0px;}</style>
  </defs>
  <g id="Capa_2-2">
    <g id="Capa_1-2">
      <path class="cls-1" d="M155.63,202.63c-3.86,0-7.04-3.04-7.04-6.81s3.17-6.83,7.04-6.83,7.01,3.06,7.01,6.83-3.15,6.81-7.01,6.81"></path>
      <path class="cls-1" d="M205.56,175.21c-6.99,0-10.77-2.73-14.17-10.93l-43.65-125.17h15.78V0H46.64v39.1h15.74l-43.64,125.17c-3.35,8.2-7.14,10.93-14.2,10.93H0v54.64h89.3c-15.81-8.6-26.95-29.71-26.95-54.46v-.18h85.39c0,.07.03.14.03.18,0,3.39-.22,6.7-.64,9.95,2.38-1.83,5.32-2.86,8.5-2.86,7.6,0,13.76,5.98,13.76,13.33s-6.16,13.36-13.76,13.36c-5.44,0-10.15-3.09-12.37-7.57-4.67,12.8-12.68,22.95-22.38,28.26h89.29v-54.64h-4.62,0ZM105.08,133.37c-7.97,0-14.44-6.31-14.44-13.97,0-2.12.48-4.05,1.28-5.78v-.04l13.18-32.65,13.27,32.9c.73,1.7,1.19,3.59,1.19,5.57,0,7.67-6.49,13.97-14.47,13.97"></path>
    </g>
  </g>
</svg>
